<svg width="129" height="28" viewBox="0 0 129 28" fill="none" xmlns="http://www.w3.org/2000/svg">
<path fill-rule="evenodd" clip-rule="evenodd" d="M60.4989 8.61291C60.8061 8.31932 61.0473 7.97183 61.2087 7.59066C61.37 7.20949 61.4481 6.80228 61.4385 6.39276C61.4289 5.98323 61.3317 5.57958 61.1526 5.20532C60.9736 4.83107 60.7162 4.49369 60.3955 4.21286C58.3671 2.42479 55.8222 1.22516 53.0722 0.760684C50.3222 0.296208 47.4863 0.587017 44.9112 1.59755C42.3361 2.60808 40.1335 4.29452 38.5727 6.45065C37.012 8.60677 36.1607 11.1391 36.1231 13.738C36.1607 16.3369 37.012 18.8692 38.5727 21.0253C40.1335 23.1815 42.3361 24.8679 44.9112 25.8784C47.4863 26.889 50.3222 27.1798 53.0722 26.7153C55.8222 26.2508 58.3671 25.0512 60.3955 23.2631C60.7162 22.9823 60.9736 22.6449 61.1526 22.2707C61.3317 21.8964 61.4289 21.4927 61.4385 21.0832C61.4481 20.6737 61.37 20.2665 61.2087 19.8853C61.0473 19.5042 60.8061 19.1567 60.4989 18.8631C59.8741 18.2672 59.0226 17.9235 58.1279 17.9058C57.2332 17.8882 56.3669 18.1981 55.7155 18.7688C54.2706 20.0367 52.3515 20.7315 50.365 20.7057C48.3785 20.68 46.4809 19.9358 45.0746 18.6309C44.3826 17.9889 43.8335 17.2262 43.4589 16.3867C43.0843 15.5471 42.8915 14.647 42.8915 13.738C42.8915 12.829 43.0843 11.9289 43.4589 11.0893C43.8335 10.2497 44.3826 9.48709 45.0746 8.8451C46.4809 7.54022 48.3785 6.79601 50.365 6.77026C52.3515 6.74452 54.2706 7.43927 55.7155 8.70721C56.3669 9.27798 57.2334 9.58787 58.1281 9.57007C59.0229 9.55226 59.8744 9.20818 60.4989 8.61202V8.61291ZM78.966 0.545561C75.1832 0.529458 71.5479 1.90932 68.8577 4.38245C66.1675 6.85558 64.6421 10.22 64.6161 13.7377C64.6161 17.2768 66.1279 20.671 68.8191 23.1735C71.5102 25.676 75.1602 27.0819 78.966 27.0819C82.7719 27.0819 86.4218 25.676 89.1129 23.1735C91.8041 20.671 93.3159 17.2768 93.3159 13.7377C93.2899 10.22 91.7645 6.85558 89.0743 4.38245C86.3841 1.90932 82.7488 0.529458 78.966 0.545561ZM78.966 20.7052C77.4876 20.6895 76.0472 20.2676 74.8262 19.4924C73.6051 18.7173 72.6579 17.6235 72.1038 16.3489C71.5497 15.0742 71.4134 13.6756 71.7122 12.3291C72.0109 10.9826 72.7314 9.7484 73.7828 8.7818C74.8342 7.8152 76.1695 7.15941 77.6208 6.89699C79.0721 6.63457 80.5745 6.77724 81.9388 7.30704C83.3031 7.83685 84.4683 8.7301 85.2879 9.87438C86.1075 11.0187 86.5448 12.3628 86.5447 13.7377C86.5391 14.6579 86.3385 15.5681 85.9546 16.4163C85.5707 17.2645 85.0109 18.0341 84.3071 18.6811C83.6034 19.3281 82.7695 19.8398 81.8531 20.1871C80.9366 20.5344 79.9556 20.7104 78.966 20.7052ZM112.551 0.547658C108.271 0.531074 104.159 2.09323 101.116 4.89167C98.0723 7.69011 96.3465 11.4965 96.3164 15.4763C96.3133 17.4395 96.7319 19.3834 97.5475 21.1942C98.3632 23.0049 99.5594 24.6459 101.066 26.0209C101.704 26.604 102.563 26.9307 103.458 26.9307C104.353 26.9307 105.211 26.604 105.85 26.0209C106.164 25.7336 106.413 25.391 106.583 25.0132C106.753 24.6353 106.841 24.2297 106.841 23.82C106.841 23.4104 106.753 23.0048 106.583 22.6269C106.413 22.2491 106.164 21.9065 105.85 21.6191C104.972 20.816 104.274 19.8585 103.798 18.8022C103.322 17.746 103.077 16.6122 103.077 15.467C103.077 14.3217 103.322 13.188 103.798 12.1317C104.274 11.0755 104.972 10.1179 105.85 9.31483C107.634 7.68198 110.038 6.76688 112.541 6.76688C115.045 6.76688 117.448 7.68198 119.233 9.31483C120.111 10.1179 120.809 11.0755 121.285 12.1317C121.761 13.188 122.006 14.3217 122.006 15.467C122.006 16.6122 121.761 17.746 121.285 18.8022C120.809 19.8585 120.111 20.816 119.233 21.6191C118.919 21.9064 118.67 22.2489 118.5 22.6267C118.329 23.0045 118.242 23.41 118.242 23.8196C118.242 24.2292 118.329 24.6347 118.5 25.0125C118.67 25.3903 118.919 25.7328 119.233 26.0201C119.871 26.6031 120.73 26.9299 121.625 26.9299C122.52 26.9299 123.378 26.6031 124.017 26.0201C125.527 24.6468 126.727 23.0066 127.546 21.196C128.366 19.3853 128.788 17.4407 128.787 15.4763C128.757 11.4962 127.031 7.68953 123.988 4.89104C120.944 2.09255 116.831 0.530602 112.551 0.547658ZM4.89377 4.89137C7.93721 2.0929 12.0498 0.530846 16.3298 0.547665C20.6098 0.530846 24.7223 2.0929 27.7658 4.89137C30.8092 7.68983 32.5352 11.4963 32.5653 15.4763C32.5654 17.4406 32.1434 19.385 31.3241 21.1955C30.5048 23.006 29.3048 24.646 27.7944 26.0192C27.1563 26.6023 26.2974 26.929 25.4028 26.929C24.5081 26.929 23.6492 26.6023 23.0111 26.0192C22.6971 25.7318 22.4477 25.3892 22.2775 25.0114C22.1073 24.6335 22.0196 24.2279 22.0196 23.8183C22.0196 23.4086 22.1073 23.003 22.2775 22.6251C22.4477 22.2473 22.6971 21.9047 23.0111 21.6173C23.8893 20.8143 24.5867 19.8566 25.0628 18.8003C25.5389 17.744 25.7841 16.6101 25.7841 15.4648C25.7841 14.3194 25.5389 13.1855 25.0628 12.1292C24.5867 11.0729 23.8893 10.1153 23.0111 9.31217C21.2262 7.67927 18.8226 6.76414 16.3188 6.76414C13.8149 6.76414 11.4113 7.67927 9.62643 9.31217C8.74827 10.1153 8.05081 11.0729 7.57473 12.1292C7.09864 13.1855 6.85345 14.3194 6.85345 15.4648C6.85345 16.6101 7.09864 17.744 7.57473 18.8003C8.05081 19.8566 8.74827 20.8143 9.62643 21.6173C9.94044 21.9047 10.1898 22.2473 10.3601 22.6251C10.5303 23.003 10.6179 23.4086 10.6179 23.8183C10.6179 24.2279 10.5303 24.6335 10.3601 25.0114C10.1898 25.3892 9.94044 25.7318 9.62643 26.0192C8.98829 26.6023 8.12943 26.929 7.23478 26.929C6.34013 26.929 5.48127 26.6023 4.84312 26.0192C3.33675 24.6443 2.14076 23.0035 1.32529 21.1931C0.50982 19.3827 0.0912935 17.4391 0.0942537 15.4763C0.124353 11.4963 1.85033 7.68983 4.89377 4.89137ZM53.8541 13.7218C53.8643 15.4394 52.3581 16.8397 50.4899 16.8493C48.6217 16.8589 47.0989 15.4742 47.0887 13.7566C47.0785 12.039 48.5847 10.6388 50.4529 10.6292C52.3211 10.6195 53.8439 12.0042 53.8541 13.7218Z" fill="white"/>
</svg>
